<svg id="Layer_1" data-name="Layer 1" xmlns="http://www.w3.org/2000/svg" viewBox="0 0 1999.75 768.25"><defs><style>.cls-1{fill:#f5f3ed;}</style></defs><path class="cls-1" d="M430.13,1465.48V873.55H2429.87v606.93c-29.43,15.16-61.23,20.78-93.82,23-39.51,2.68-78.46-2.39-117.2-9.39-62.25-11.26-123.36-27.23-183.91-45.38-29.77-8.93-59-19.63-89.06-27.6-57.22-15.21-115.36-25.26-174.74-27-49.63-1.46-98.35,3.89-146.05,18-48.71,14.39-93.54,37.19-137,62.87-45.57,26.9-90.72,54.53-136.65,80.8-95.82,54.81-199.56,81.8-309.55,85.57-80,2.74-158.94-6.17-236.81-24.2C672.11,1586.33,547.24,1535.45,430.13,1465.48Z" transform="translate(-430.13 -873.55)"/></svg>