<svg id="Layer_1" data-name="Layer 1" xmlns="http://www.w3.org/2000/svg" viewBox="0 0 98.53 138.07"><defs><style>.cls-1{fill:#52230a;}</style></defs><path class="cls-1" d="M267,312.28c.4.31.76.78,1.21.9,2.35.63,4.77,1,7.09,1.76a47,47,0,0,1,14.27,7.4,48.33,48.33,0,0,1,10.84,11.27,49.81,49.81,0,0,1,6.81,14.19,48.84,48.84,0,0,1,.33,26.29,49.13,49.13,0,0,1-14.81,24.17,47.34,47.34,0,0,1-14,8.83A48.73,48.73,0,0,1,251.28,410a47.49,47.49,0,0,1-26.66-14.08c-12-12.6-16.26-27.68-12.88-44.65,2.35-11.78,8.65-21.37,18.24-28.71a49.24,49.24,0,0,1,17.4-8.53c1.42-.38,2.91-.54,4.34-.9.41-.1.72-.56,1.08-.85Zm-53,49.09a40.56,40.56,0,0,0,1.64,12.45,45.27,45.27,0,0,0,8.71,16.78A44,44,0,0,0,241,403.37,103.43,103.43,0,0,0,252.1,407c1.37.41,2-.15,2.09-1.62,0-1.11,0-2.23,0-3.35a1,1,0,0,1,1.2-1.12c.44,0,.88.09,1.31.11a1.18,1.18,0,0,1,1.27,1.39c0,1.2-.08,2.4-.05,3.59s.59,1.66,2,1.65,1.81-.48,1.85-1.68,0-2.16,0-3.24c0-1.58.09-1.65,1.7-1.77l.6,0c1-.1,1.51.31,1.46,1.36s0,1.92,0,2.88c0,1.76.74,2.28,2.46,1.78.73-.2,1.46-.42,2.2-.57a44,44,0,0,0,14-5.75A45.15,45.15,0,0,0,295.94,390a45.91,45.91,0,0,0-58.65-68.38,46.09,46.09,0,0,0-23.38,39.73Z" transform="translate(-210.62 -312.28)"/><path class="cls-1" d="M231.8,431.43a9.24,9.24,0,0,0-1.31.47,3.51,3.51,0,0,1-4.41-.55,4.28,4.28,0,0,1-1.53-4.61c1.11-3.83,6.8-7,10.81-4.15,1.3.93,2.22,2.13,2,3.71a58.82,58.82,0,0,1-1.29,6.42c-.27,1.13-.78,2.19-1,3.32a4.91,4.91,0,0,0-.05,2.22c.31,1.2,1.22,1.49,2.34.92,2.87-1.47,4.29-4,5-7,.58-2.45.94-4.95,1.4-7.43.09-.51.17-1,.3-1.52a1.87,1.87,0,0,1,2.23-1.65,1.8,1.8,0,0,1,1.52,2.31c-.31,1.81-.72,3.6-1.12,5.39-.92,4.18-1.84,8.35-2.79,12.51a14.12,14.12,0,0,1-2.73,6.07,6.13,6.13,0,0,1-4.06,2.33,10.93,10.93,0,0,1-6.88-1,7.39,7.39,0,0,1-3.34-4.07c-.51-1.45.24-2.47,1.23-3.37a3.17,3.17,0,0,1,3.29-.28,1.19,1.19,0,0,1,.53.83,1.79,1.79,0,0,1-.59.93c-.48.47-1.51,1.09-1.43,1.31a4.17,4.17,0,0,0,1.5,2c3.21,1.94,5.67,1.27,7.54-2a20.47,20.47,0,0,0,1.33-3.07,1,1,0,0,0-.15-.95c-.2-.18-.65-.07-1-.06a.94.94,0,0,0-.33.14c-2.57,1.23-4.25,1-6.23-.83-1.78-1.68-1.65-3.76-1.05-5.9l.63-2.24Zm1.9-5.35c0-2-1.4-3-2.85-2.25a9.48,9.48,0,0,0-2.82,2.11,3.93,3.93,0,0,0-.76,2.41,2.25,2.25,0,0,0,.92,1.65c.33.22,1.06-.17,1.62-.28a7.72,7.72,0,0,1,1.77-.3c.76,0,1.38-.06,1.59-.88S233.57,426.68,233.7,426.08Z" transform="translate(-210.62 -312.28)"/><path class="cls-1" d="M273.47,450.33c-3.54.06-6.44-1-8.08-4.44a2.94,2.94,0,0,1,.45-3.65,3.47,3.47,0,0,1,3.55-.82c.32.13.77.56.73.79a1.7,1.7,0,0,1-.72,1.1c-1.71.94-1.8,1.87-.21,3,2.91,2.11,5.75,1.67,7.71-1.35a18.51,18.51,0,0,0,1.57-3.48c.33-.88-.13-1.32-1-1-.56.18-1.06.57-1.62.76-2.82.93-6.26-1.26-6.39-4.24a23,23,0,0,1,.67-4.21,4.86,4.86,0,0,0-.08-1.13,3.19,3.19,0,0,0-1,.13c-2.44,1.24-3.69.67-5.23-1a4.63,4.63,0,0,1-.38-5.48,8.36,8.36,0,0,1,7.56-3.75c3.67.59,5.46,3.51,4.44,7.42-.59,2.24-1.34,4.44-2,6.66a7.19,7.19,0,0,0-.36,1.88,1.66,1.66,0,0,0,2.65,1.61,8.63,8.63,0,0,0,4.38-5.61c.77-3,1.28-6.09,1.9-9.14a11.59,11.59,0,0,1,.25-1.17,2,2,0,0,1,2.41-1.61c1.14.28,1.58,1.14,1.28,2.56-.81,3.83-1.57,7.67-2.46,11.48-.73,3.15-1.49,6.3-2.5,9.37A7.18,7.18,0,0,1,273.47,450.33Zm-4-21.12c1.48.55,1.93-.17,2.1-1.29.11-.71.3-1.41.36-2.12a1.93,1.93,0,0,0-2.76-2,10.11,10.11,0,0,0-3,2.28,4,4,0,0,0-.68,2.54c.05,1.4,1.26,1.85,2.46,1.13A7.25,7.25,0,0,1,269.44,429.21Z" transform="translate(-210.62 -312.28)"/><path class="cls-1" d="M262.89,436.39c-1.48-.39-1.69.66-2,1.71a6.75,6.75,0,0,1-5.73,4.95,7,7,0,0,1-6.75-3.47c-1.42-2.44-.19-6.76,2.39-8.4,3.18-2,6.41-1.66,9,1.09a6.67,6.67,0,0,0,3.75,2.2,1.7,1.7,0,0,1,.87.34,1.32,1.32,0,0,1,.36.92c0,.23-.39.51-.65.59A4.68,4.68,0,0,1,262.89,436.39Zm-8.18,3.73a3.81,3.81,0,0,0,3.5-3.73,4,4,0,0,0-3.66-3.48,3.69,3.69,0,0,0-3.49,3.46A3.93,3.93,0,0,0,254.71,440.12Z" transform="translate(-210.62 -312.28)"/><path class="cls-1" d="M287.19,438.45c.2-.88.4-1.94.67-3,.41-1.58.86-3.16,1.32-4.73a2,2,0,0,1,2.29-1.62,1.79,1.79,0,0,1,1.31,2.59c-.66,2.17-1.42,4.32-2.07,6.5a4.63,4.63,0,0,0,.1,1.51,5,5,0,0,0,1.67-.51c.55-.43.81-1.23,1.36-1.65a1.72,1.72,0,0,1,1.54-.24,1.58,1.58,0,0,1,.3,1.5,6.7,6.7,0,0,1-4.08,3.49C289.7,442.9,287.18,440.73,287.19,438.45Z" transform="translate(-210.62 -312.28)"/><path class="cls-1" d="M292,423.29a2.75,2.75,0,0,1,2.35,2.31,2.78,2.78,0,0,1-2.19,2.36,3.06,3.06,0,0,1-2.34-2.21A2.65,2.65,0,0,1,292,423.29Z" transform="translate(-210.62 -312.28)"/><path class="cls-1" d="M259.88,322.15a41.23,41.23,0,0,1,15.87,3.52,38.5,38.5,0,0,1,15.93,12.88c.49.68,1,1.33,1.47,2,.67,1.09.4,1.59-.83,1.55a27.47,27.47,0,0,0-8.4,1.13,29.74,29.74,0,0,0-12.64,7c-6.63,6.24-9.67,14-9.68,23.07,0,1.24-.61,1.91-1.77,1.89s-1.64-.68-1.66-1.87c-.19-11.1-4.47-20.09-13.88-26.29a29,29,0,0,0-16.74-4.94c-1.32,0-1.64-.5-.91-1.61A40.89,40.89,0,0,1,238,329a37.79,37.79,0,0,1,13.46-5.74C254.23,322.69,257.07,322.51,259.88,322.15Z" transform="translate(-210.62 -312.28)"/><path class="cls-1" d="M265.79,389.55c0-3,0-6,0-9a1.77,1.77,0,0,1,1.59-2,35.68,35.68,0,0,0,9-3.47,36.38,36.38,0,0,0,12.85-11.8,34.09,34.09,0,0,0,5.2-12.54c.21-1.09.12-2.24.31-3.34a4.81,4.81,0,0,1,.8-1.44c.36.39.92.74,1,1.19.88,3.57,2.08,7.11,2.42,10.74a38.12,38.12,0,0,1-7.66,27.29,36.31,36.31,0,0,1-14.89,11.93c-2.85,1.22-5.84,2.11-8.79,3.07-1.42.46-1.87.05-1.88-1.51,0-3,0-6.08,0-9.12Z" transform="translate(-210.62 -312.28)"/><path class="cls-1" d="M254,389.68c0,3,0,6.08,0,9.12,0,1.5-.44,1.87-1.82,1.42-3-1-6-1.88-8.91-3.1a36.12,36.12,0,0,1-13.6-10.36,38.94,38.94,0,0,1-9.15-24.57,41.74,41.74,0,0,1,2.59-14.93.5.5,0,0,1,.09-.21c.37-.38.75-.75,1.13-1.12a4.44,4.44,0,0,1,.62,1.45A28.17,28.17,0,0,0,228.06,359a36.1,36.1,0,0,0,24.49,19.6,1.67,1.67,0,0,1,1.47,1.86c-.06,3.08,0,6.15,0,9.23Z" transform="translate(-210.62 -312.28)"/><path class="cls-1" d="M254,373c0,1.2-.67,1.67-1.8,1.29A34.72,34.72,0,0,1,236.35,364a32.62,32.62,0,0,1-7.2-15.6c-.29-1.58.39-2.26,1.92-1.88,4.71,1.17,9.25,2.66,13.12,5.82a26,26,0,0,1,9.58,18.28C253.85,371.36,253.94,372.15,254,373Z" transform="translate(-210.62 -312.28)"/><path class="cls-1" d="M265.75,373.14c.52-9,3.54-16.08,10.27-21.26a27.9,27.9,0,0,1,11.28-5l.46-.12c2.5-.73,3.18-.05,2.64,2.47a32.31,32.31,0,0,1-7.52,15.28,31.91,31.91,0,0,1-13.6,9.05,10.79,10.79,0,0,0-1.12.43C266.4,374.81,265.7,374.36,265.75,373.14Z" transform="translate(-210.62 -312.28)"/><path class="cls-1" d="M261.57,390.35c0,3,0,6,0,9,0,1.37-.2,1.54-1.64,1.53s-1.73-.23-1.73-1.6l0-18c0-1.31.57-2,1.7-2s1.76.68,1.75,2.07c0,3,0,6,0,9Z" transform="translate(-210.62 -312.28)"/></svg>